<?xml version="1.0" encoding="UTF-8"?>
<svg width="409px" height="68px" viewBox="0 0 409 68" version="1.1" xmlns="http://www.w3.org/2000/svg" xmlns:xlink="http://www.w3.org/1999/xlink">
    <title>Logomark/Accent</title>
    <g id="ðŸª-Marketing" stroke="none" stroke-width="1" fill="none" fill-rule="evenodd">
        <g id="Logomarks" transform="translate(-33, -322)" fill="#FE6F5C" fill-rule="nonzero">
            <g id="Logomark/Accent" transform="translate(33.136, 322.8278)">
                <path d="M50.4750234,67.1722251 L76.0002935,67.1722251 L49.8033193,0 L26.1010547,0 L0,67.1722251 L25.4296157,67.1722251 L27.8424888,59.0155957 L48.0281396,59.0155957 L50.4750234,67.1722251 Z M37.4599673,27.348542 L38.5156157,27.348542 L42.2168936,41.7426094 L33.8272397,41.7426094 L37.4599673,27.348542 Z" id="Shape"></path>
                <polygon id="Path" points="78.5280015 0.00390527344 78.5280015 67.1722251 121.227841 67.1722251 121.227841 47.4058257 102.70848 47.4058257 102.70848 0.00390527344"></polygon>
                <polygon id="Path" points="124.608001 0.00390527344 124.608001 67.1722251 148.788482 67.1722251 148.788482 0.00390527344"></polygon>
                <path d="M155.520001,0.00390527344 L155.520001,67.1722251 L184.786562,67.1722251 C204.744961,67.1722251 220.001281,53.2589458 220.001281,33.3005464 C220.001281,12.958147 207.239041,0.00390527344 186.704641,0.00390527344 L155.520001,0.00390527344 Z M184.210562,46.9258286 L179.892482,46.9258286 L179.796482,19.9623076 L184.114562,19.9623076 C191.694722,19.9623076 195.244802,25.7203872 195.244802,33.3965479 C195.244802,41.0727085 190.926722,46.9258286 184.210562,46.9258286 L184.210562,46.9258286 Z" id="Shape"></path>
                <path d="M265.899023,67.1722251 L291.424293,67.1722251 L265.227319,0 L241.525055,0 L215.424,67.1722251 L240.853616,67.1722251 L243.266489,59.0155957 L263.45214,59.0155957 L265.899023,67.1722251 Z M252.883967,27.348542 L253.939616,27.348542 L257.640894,41.7426094 L249.25124,41.7426094 L252.883967,27.348542 Z" id="Shape"></path>
                <path d="M293.952001,0.00390527344 L293.952001,67.1722251 L323.218562,67.1722251 C343.176961,67.1722251 358.433281,53.2589458 358.433281,33.3005464 C358.433281,12.958147 345.671041,0.00390527344 325.136641,0.00390527344 L293.952001,0.00390527344 Z M322.642562,46.9258286 L318.324482,46.9258286 L318.228482,19.9623076 L322.546562,19.9623076 C330.126722,19.9623076 333.676802,25.7203872 333.676802,33.3965479 C333.676802,41.0727085 329.358722,46.9258286 322.642562,46.9258286 L322.642562,46.9258286 Z" id="Shape"></path>
                <polygon id="Path" points="362.784001 0.00390527344 362.784001 67.1722251 408.169922 67.1722251 408.169922 49.9959053 386.964482 49.9959053 386.964482 42.1277446 407.306881 42.1277446 407.306881 24.8563843 386.964482 24.8563843 386.964482 17.3722236 408.265922 17.3722236 408.265922 0.00390380859"></polygon>
            </g>
        </g>
    </g>
</svg>